C:\Users\Nicos\Documents\OpenSimProjects\SprintingProject\Study1\PredictiveResults\IC_pred_Sprinting_optimum_26-October-2023__10-52-28_p02_maxVel_01___Nominal_GRF.mot
version=1
nRows=4
nColumns=127
inDegrees=yes
endheader
time	ground_force_vx	ground_force_vy	ground_force_vz	ground_force_px	ground_force_py	ground_force_pz	ground_torque_x	ground_torque_y	ground_torque_z	1_ground_force_vx	1_ground_force_vy	1_ground_force_vz	1_ground_force_px	1_ground_force_py	1_ground_force_pz	1_ground_torque_x	1_ground_torque_y	1_ground_torque_z	2_ground_force_vx	2_ground_force_vy	2_ground_force_vz	2_ground_force_px	2_ground_force_py	2_ground_force_pz	2_ground_torque_x	2_ground_torque_y	2_ground_torque_z	3_ground_force_vx	3_ground_force_vy	3_ground_force_vz	3_ground_force_px	3_ground_force_py	3_ground_force_pz	3_ground_torque_x	3_ground_torque_y	3_ground_torque_z	4_ground_force_vx	4_ground_force_vy	4_ground_force_vz	4_ground_force_px	4_ground_force_py	4_ground_force_pz	4_ground_torque_x	4_ground_torque_y	4_ground_torque_z	5_ground_force_vx	5_ground_force_vy	5_ground_force_vz	5_ground_force_px	5_ground_force_py	5_ground_force_pz	5_ground_torque_x	5_ground_torque_y	5_ground_torque_z	6_ground_force_vx	6_ground_force_vy	6_ground_force_vz	6_ground_force_px	6_ground_force_py	6_ground_force_pz	6_ground_torque_x	6_ground_torque_y	6_ground_torque_z	7_ground_force_vx	7_ground_force_vy	7_ground_force_vz	7_ground_force_px	7_ground_force_py	7_ground_force_pz	7_ground_torque_x	7_ground_torque_y	7_ground_torque_z	8_ground_force_vx	8_ground_force_vy	8_ground_force_vz	8_ground_force_px	8_ground_force_py	8_ground_force_pz	8_ground_torque_x	8_ground_torque_y	8_ground_torque_z	9_ground_force_vx	9_ground_force_vy	9_ground_force_vz	9_ground_force_px	9_ground_force_py	9_ground_force_pz	9_ground_torque_x	9_ground_torque_y	9_ground_torque_z	10_ground_force_vx	10_ground_force_vy	10_ground_force_vz	10_ground_force_px	10_ground_force_py	10_ground_force_pz	10_ground_torque_x	10_ground_torque_y	10_ground_torque_z	11_ground_force_vx	11_ground_force_vy	11_ground_force_vz	11_ground_force_px	11_ground_force_py	11_ground_force_pz	11_ground_torque_x	11_ground_torque_y	11_ground_torque_z	12_ground_force_vx	12_ground_force_vy	12_ground_force_vz	12_ground_force_px	12_ground_force_py	12_ground_force_pz	12_ground_torque_x	12_ground_torque_y	12_ground_torque_z	13_ground_force_vx	13_ground_force_vy	13_ground_force_vz	13_ground_force_px	13_ground_force_py	13_ground_force_pz	13_ground_torque_x	13_ground_torque_y	13_ground_torque_z
0.106669	337.767189	804.949930	-87.582590	0.420895	-0.018513	0.429707	0.000000	0.000000	0.000000	145.249943	371.052806	36.377117	0.375925	-0.011961	0.446235	0.000000	0.000000	0.000000	68.337238	245.233773	30.723711	0.344597	-0.009776	0.432587	0.000000	0.000000	0.000000	107.912780	354.556107	-15.056109	0.349747	-0.012443	0.411104	0.000000	0.000000	0.000000	-0.034076	0.105079	0.025830	0.260369	0.005539	0.452394	0.000000	0.000000	0.000000	-28.409473	111.541660	24.364836	0.316836	-0.006013	0.424062	0.000000	0.000000	0.000000	-0.000994	0.002448	0.000669	0.205790	0.009039	0.389966	0.000000	0.000000	0.000000	-0.000000	0.000000	-0.000000	0.437119	0.191675	0.079775	0.000000	0.000000	0.000000	-0.000000	0.000000	-0.000000	0.434248	0.215559	0.066466	0.000000	0.000000	0.000000	-0.000000	0.000000	-0.000000	0.421410	0.229498	0.078247	0.000000	0.000000	0.000000	-0.000000	0.000000	0.000000	0.411758	0.224937	0.096688	0.000000	0.000000	0.000000	-0.000000	0.000000	0.000000	0.415567	0.274782	0.064532	0.000000	0.000000	0.000000	-0.000000	0.000000	0.000000	0.412051	0.243093	0.086797	0.000000	0.000000	0.000000	-0.000000	0.000000	0.000000	0.374615	0.297473	0.120999	0.000000	0.000000	0.000000
0.108711	379.606098	823.090360	-72.987863	0.419960	-0.018946	0.429949	0.000000	0.000000	0.000000	136.437374	328.279260	38.373754	0.375648	-0.011178	0.446145	0.000000	0.000000	0.000000	43.230071	177.014742	32.415521	0.345103	-0.007993	0.432579	0.000000	0.000000	0.000000	84.991731	277.530127	-3.275380	0.350107	-0.010771	0.411118	0.000000	0.000000	0.000000	-0.000775	0.002171	0.000514	0.262355	0.009343	0.451960	0.000000	0.000000	0.000000	-14.509587	52.268666	10.623953	0.317788	-0.003555	0.423911	0.000000	0.000000	0.000000	-0.000004	0.000009	0.000002	0.208529	0.014197	0.389241	0.000000	0.000000	0.000000	-0.000000	0.000000	-0.000000	0.478070	0.188493	0.079559	0.000000	0.000000	0.000000	-0.000000	0.000000	-0.000000	0.473673	0.212263	0.065859	0.000000	0.000000	0.000000	-0.000000	0.000000	-0.000000	0.459258	0.226091	0.077466	0.000000	0.000000	0.000000	-0.000000	0.000000	-0.000000	0.449729	0.221421	0.095863	0.000000	0.000000	0.000000	-0.000000	0.000000	-0.000000	0.450819	0.271242	0.063350	0.000000	0.000000	0.000000	-0.000000	0.000000	-0.000000	0.449018	0.239555	0.085833	0.000000	0.000000	0.000000	-0.000000	0.000000	0.000000	0.408055	0.293411	0.119300	0.000000	0.000000	0.000000
0.110191	403.476893	827.818163	-61.552524	0.419121	-0.019173	0.430111	0.000000	0.000000	0.000000	125.657779	293.051679	36.257317	0.375408	-0.010481	0.446057	0.000000	0.000000	0.000000	29.590393	129.902949	26.858763	0.345555	-0.006546	0.432570	0.000000	0.000000	0.000000	67.696898	222.466042	11.929864	0.350440	-0.009407	0.411125	0.000000	0.000000	0.000000	-0.000033	0.000088	0.000020	0.264080	0.012317	0.451633	0.000000	0.000000	0.000000	-5.639058	19.676468	3.931667	0.318629	-0.001596	0.423795	0.000000	0.000000	0.000000	-0.000000	0.000000	0.000000	0.210927	0.018204	0.388694	0.000000	0.000000	0.000000	-0.000000	0.000000	-0.000000	0.507875	0.186155	0.079542	0.000000	0.000000	0.000000	-0.000000	0.000000	-0.000000	0.502371	0.209826	0.065553	0.000000	0.000000	0.000000	-0.000000	0.000000	-0.000000	0.486844	0.223545	0.077015	0.000000	0.000000	0.000000	-0.000000	0.000000	-0.000000	0.477418	0.218797	0.095385	0.000000	0.000000	0.000000	-0.000000	0.000000	-0.000000	0.476489	0.268571	0.062584	0.000000	0.000000	0.000000	-0.000000	0.000000	-0.000000	0.475962	0.236905	0.085244	0.000000	0.000000	0.000000	-0.000000	0.000000	0.000000	0.432433	0.290341	0.118158	0.000000	0.000000	0.000000
0.110838	414.072267	828.130033	-54.143717	0.418718	-0.019243	0.430176	0.000000	0.000000	0.000000	120.388648	276.900987	35.633158	0.375303	-0.010139	0.446015	0.000000	0.000000	0.000000	24.486512	110.431794	23.798433	0.345773	-0.005877	0.432563	0.000000	0.000000	0.000000	59.692294	199.029584	16.287602	0.350602	-0.008774	0.411125	0.000000	0.000000	0.000000	-0.000008	0.000020	0.000004	0.264915	0.013672	0.451488	0.000000	0.000000	0.000000	-3.033253	10.483319	2.094364	0.319036	-0.000697	0.423741	0.000000	0.000000	0.000000	-0.000000	0.000000	0.000000	0.212091	0.020025	0.388453	0.000000	0.000000	0.000000	-0.000000	0.000000	-0.000000	0.520922	0.185128	0.079571	0.000000	0.000000	0.000000	-0.000000	0.000000	-0.000000	0.514935	0.208751	0.065455	0.000000	0.000000	0.000000	-0.000000	0.000000	-0.000000	0.498933	0.222415	0.076850	0.000000	0.000000	0.000000	-0.000000	0.000000	-0.000000	0.489556	0.217633	0.095210	0.000000	0.000000	0.000000	-0.000000	0.000000	-0.000000	0.487734	0.267379	0.062276	0.000000	0.000000	0.000000	-0.000000	0.000000	-0.000000	0.487771	0.235726	0.085018	0.000000	0.000000	0.000000	-0.000000	0.000000	0.000000	0.443121	0.288968	0.117687	0.000000	0.000000	0.000000
